<?xml version="1.0" standalone="no"?>
<!DOCTYPE svg PUBLIC "-//W3C//DTD SVG 20010904//EN"
 "http://www.w3.org/TR/2001/REC-SVG-20010904/DTD/svg10.dtd">
<svg version="1.0" xmlns="http://www.w3.org/2000/svg"
 width="700.000000pt" height="700.000000pt" viewBox="0 0 700.000000 700.000000"
 preserveAspectRatio="xMidYMid meet">
<metadata>
Created by potrace 1.14, written by Peter Selinger 2001-2017
</metadata>
<g transform="translate(0.000000,700.000000) scale(0.100000,-0.100000)"
fill="#000000" stroke="none">
<path d="M1150 6993 c-77 -8 -199 -37 -280 -65 -436 -153 -745 -507 -847 -970
-17 -79 -18 -198 -18 -2453 0 -2252 1 -2374 18 -2455 100 -469 419 -835 853
-979 214 -71 -18 -65 2559 -69 1633 -2 2349 0 2417 8 436 49 813 313 1012 708
44 88 88 218 113 332 17 81 18 203 18 2450 0 2247 -1 2369 -18 2450 -101 471
-417 833 -856 980 -207 69 13 64 -2586 66 -1292 0 -2366 -1 -2385 -3z m1120
-1583 l0 -610 -610 0 -610 0 0 610 0 610 610 0 610 0 0 -610z m1860 0 l0 -610
-610 0 -610 0 0 610 0 610 610 0 610 0 0 -610z m0 -1930 l0 -610 -610 0 -610
0 0 610 0 610 610 0 610 0 0 -610z m1850 0 l0 -610 -610 0 -610 0 0 610 0 610
610 0 610 0 0 -610z m-3710 -1920 l0 -610 -610 0 -610 0 0 610 0 610 610 0
610 0 0 -610z m3718 -2 l-3 -613 -612 -3 -613 -2 0 615 0 615 615 0 615 0 -2
-612z"/>
</g>
</svg>
